<svg xmlns="http://www.w3.org/2000/svg">
  <path id="svg_2" d="m22,99.999997c0,-43.093921 34.906076,-77.999997 77.999997,-77.999997c43.093921,0 77.999997,34.906076 77.999997,77.999997c0,43.093921 -34.906076,77.999997 -77.999997,77.999997c-43.093921,0 -77.999997,-34.906076 -77.999997,-77.999997z" stroke-opacity="null" stroke-linecap="null" stroke-linejoin="null" stroke-width="6" stroke="#000" fill-opacity="null" fill="none"/>
  <path id="svg_6" d="m7.5,59.937501c0,-12.43094 10.069061,-22.500001 22.500001,-22.500001c12.43094,0 22.500001,10.069061 22.500001,22.500001c0,12.43094 -10.069061,22.500001 -22.500001,22.500001c-12.43094,0 -22.500001,-10.069061 -22.500001,-22.500001z M 0 0
m13.992859,59.930359l32.000002,0 M 0 0 m29.992859,44.263692l0,32.201286" stroke-opacity="null" stroke-linecap="null" stroke-linejoin="null" stroke-width="4" stroke="#000" fill-opacity="null" fill="#007fff"/>
<text stroke="#000" transform="matrix(3.554398606728227,0,0,3.554398606728227,-455.402533218309,-359.4386646760953) " xml:space="preserve" text-anchor="start" font-family="Helvetica, Arial, sans-serif" font-size="24" id="svg_5" y="137.605509" x="143.38594" fill-opacity="null" stroke-opacity="null" stroke-width="0" fill="#000000">№</text>
</svg>